HIERARCHY
ROOT Hips
{
  OFFSET -32.5998 29.0326 120.673
  CHANNELS 6 Xposition Yposition Zposition Zrotation Xrotation Yrotation
  JOINT LeftUpLeg
  {
    OFFSET 8.64259 1.95398 -2.38835
    CHANNELS 3 Zrotation Xrotation Yrotation
    JOINT LeftLeg
    {
      OFFSET 43.7702 0 0
      CHANNELS 3 Zrotation Xrotation Yrotation
      JOINT LeftFoot
      {
        OFFSET 40.6238 0 0
        CHANNELS 3 Zrotation Xrotation Yrotation
        JOINT LeftToeBase
        {
          OFFSET 12.7242 0 0
          CHANNELS 3 Zrotation Xrotation Yrotation
          End Site
          {
            OFFSET 0 0 0
          }
        }
      }
    }
  }
  JOINT RightUpLeg
  {
    OFFSET -8.2249 1.95398 -2.59336
    CHANNELS 3 Zrotation Xrotation Yrotation
    JOINT RightLeg
    {
      OFFSET 43.5653 0 0
      CHANNELS 3 Zrotation Xrotation Yrotation
      JOINT RightFoot
      {
        OFFSET 40.6238 0 0
        CHANNELS 3 Zrotation Xrotation Yrotation
        JOINT RightToeBase
        {
          OFFSET 12.7242 0 0
          CHANNELS 3 Zrotation Xrotation Yrotation
          End Site
          {
            OFFSET 0 0 0
          }
        }
      }
    }
  }
  JOINT Spine
  {
    OFFSET 0.165834 0.87714 6.61349
    CHANNELS 3 Zrotation Xrotation Yrotation
    JOINT Spine1
    {
      OFFSET 7.38963 1.71661e-005 0
      CHANNELS 3 Zrotation Xrotation Yrotation
      JOINT Spine2
      {
        OFFSET 11.9445 1.14441e-005 0
        CHANNELS 3 Zrotation Xrotation Yrotation
        JOINT Spine3
        {
          OFFSET 14.7254 4.19617e-005 0
          CHANNELS 3 Zrotation Xrotation Yrotation
          JOINT Spine4
          {
            OFFSET 10.9679 0 0
            CHANNELS 3 Zrotation Xrotation Yrotation
            JOINT RightShoulder
            {
              OFFSET 2.46616 -1.6653 3.69651
              CHANNELS 3 Zrotation Xrotation Yrotation
              JOINT RightArm
              {
                OFFSET 13.0012 0 0
                CHANNELS 3 Zrotation Xrotation Yrotation
                JOINT RightForeArm
                {
                  OFFSET 28.7848 1.62311e-005 0
                  CHANNELS 3 Zrotation Xrotation Yrotation
                  JOINT RightHand
                  {
                    OFFSET 26.5688 1.62095e-005 0
                    CHANNELS 3 Zrotation Xrotation Yrotation
                    End Site
                    {
                      OFFSET 0 0 0
                    }
                  }
                }
              }
            }
            JOINT LeftShoulder
            {
              OFFSET 2.38034 -1.29275 -3.7523
              CHANNELS 3 Zrotation Xrotation Yrotation
              JOINT LeftArm
              {
                OFFSET 16.3182 6.07031e-005 0
                CHANNELS 3 Zrotation Xrotation Yrotation
                JOINT LeftForeArm
                {
                  OFFSET 27.0901 0 0
                  CHANNELS 3 Zrotation Xrotation Yrotation
                  JOINT LeftHand
                  {
                    OFFSET 24.5451 1.51738e-005 0
                    CHANNELS 3 Zrotation Xrotation Yrotation
                    End Site
                    {
                      OFFSET 0 0 0
                    }
                  }
                }
              }
            }
            JOINT Neck
            {
              OFFSET 5.0226 -0.0266342 0
              CHANNELS 3 Zrotation Xrotation Yrotation
              JOINT Head
              {
                OFFSET 6.69364 2.86102e-005 0
                CHANNELS 3 Zrotation Xrotation Yrotation
                End Site
                {
                  OFFSET 0 0 0
                }
              }
            }
          }
        }
      }
    }
  }
}
MOTION
Frames:	16
Frame Time:	0.0416667
10.0315 101.018 20.2975 -152.245 -81.6549 -152.853 -174.32 -2.65682 88.2383 -13.3792 5.68303 -0.0370686 70.2193 5.22156 -1.17974 15.8542 -9.55578 6.98092 172.23 -4.15412 89.6115 -13.8513 -1.55751 0.661296 69.8869 -5.64764 2.71699 23.9674 1.35384 2.84117 0.189869 7.66727 -90.1073 11.5397 0.327593 -0.247429 -0.131236 0.31638 -0.261608 -22.6667 0.386804 -0.137545 -2.654 0.386799 -0.137539 91.2057 -28.1173 -105.036 43.4095 -22.921 -7.93926 -14.6142 -17.8246 -25.7984 -7.91834 -0.245383 -1.67513 -87.9438 -51.3954 82.0567 -20.9353 31.0139 -15.0306 6.25942 -5.11984 -12.3044 -0.822573 -0.0554885 -1.77919 7.33106 -0.561257 -0.522975 -7.88594 -0.487946 1.08904 
10.0114 101.022 20.2822 -151.871 -81.7536 -152.367 -174.292 -2.46096 88.344 -13.5042 5.38946 -0.0131853 70.3628 5.22078 -1.50096 15.5036 -9.67213 6.84794 172.374 -4.06733 89.7914 -13.792 -1.89264 0.629738 69.6379 -5.60392 2.23641 23.9666 1.26561 3.13833 0.205804 7.6464 -90.1401 11.5815 0.343885 -0.314706 -0.089415 0.329695 -0.329542 -22.6248 0.422567 -0.196801 -2.61215 0.422556 -0.196825 91.3424 -27.8317 -104.86 43.6367 -22.7713 -7.84924 -14.52 -17.667 -25.6901 -8.27113 -0.217025 -2.12059 -88.2137 -51.694 81.7117 -20.8292 30.9786 -14.8381 6.25617 -5.12327 -12.4022 -1.04795 -0.0632084 -1.98414 7.38692 -0.680982 -0.591386 -8.33273 -0.612549 1.4933 
10.0733 101.015 20.3123 -153.281 -81.8462 -153.97 -174.375 -2.64442 88.1341 -13.2457 5.87561 -0.075772 70.8932 5.67286 -1.67763 14.5253 -11.3082 8.65639 172.236 -3.93893 89.5712 -14.1271 -2.17836 0.636226 69.7178 -5.61077 1.72595 22.9214 1.48122 3.90775 0.199691 7.6577 -90.1695 11.5589 0.317964 -0.370453 -0.112072 0.301357 -0.384097 -22.6473 0.414598 -0.257765 -2.63466 0.414598 -0.257768 91.6489 -27.3358 -104.407 43.7336 -22.3295 -8.04028 -14.0248 -16.8395 -25.2674 -10.0011 -0.12 -3.99878 -88.7624 -52.5939 81.071 -19.8218 31.2571 -15.1887 5.68259 -6.51586 -12.0167 -0.858773 -0.0755729 -3.28485 6.9461 -0.949803 -0.101671 -7.26409 -0.961738 1.43492 
10.0905 101.018 20.3973 -153.345 -81.9399 -154.076 -174.334 -2.65461 88.1054 -13.2114 5.91878 -0.142785 71.0194 5.7722 -1.61839 14.5113 -11.2081 8.47796 172.075 -3.908 89.4344 -14.0902 -1.90932 0.723257 69.8947 -5.6622 2.2466 22.877 1.55759 3.71501 0.171478 7.65739 -90.1625 11.5594 0.265137 -0.350988 -0.111532 0.249428 -0.362323 -22.6467 0.358355 -0.255082 -2.63403 0.358366 -0.255072 91.5463 -27.409 -104.593 43.5625 -22.3561 -8.10627 -14.0922 -17.0816 -25.2535 -9.95351 -0.115008 -4.02071 -88.6553 -52.5489 81.2192 -19.9883 30.9893 -15.0999 5.87437 -6.06384 -12.0113 -0.789195 -0.0718176 -2.66387 7.13801 -0.817033 0.0375537 -7.27067 -0.846975 1.08641 
10.0712 101.015 20.4319 -151.089 -81.7047 -151.603 -174.173 -2.6601 88.3476 -13.4356 5.4829 -0.175231 71.2043 5.70715 -2.0553 14.7958 -11.483 9.18783 172.253 -4.42325 89.6171 -13.5075 -2.10547 0.726584 69.6311 -5.60719 2.09061 22.9683 1.42713 4.01839 0.241913 7.66434 -90.1534 11.5458 0.409513 -0.34777 -0.125154 0.393805 -0.365471 -22.6607 0.4951 -0.208612 -2.64801 0.495096 -0.208625 91.4274 -27.9037 -104.658 43.3994 -22.1533 -7.83791 -14.3606 -17.4227 -25.5022 -9.21713 -0.164071 -3.2733 -88.8406 -51.8473 80.8178 -20.701 30.8503 -14.7771 6.27815 -5.07688 -12.4466 -1.07499 -0.0729211 -3.16354 6.89408 -1.012 -0.741629 -6.88662 -0.893696 1.54462 
10.1652 101.011 20.4768 -154.723 -82.0226 -155.548 -174.395 -2.57999 87.9807 -13.4842 6.48455 -0.166256 70.9377 5.7825 -1.41232 15.0598 -11.2704 9.08986 172.1 -3.90119 89.2839 -14.0179 -2.62487 0.633208 69.4185 -5.43233 1.7333 23.6947 1.25927 3.5558 0.167801 7.64839 -90.123 11.5774 0.276242 -0.273677 -0.0935537 0.263935 -0.285576 -22.6288 0.345723 -0.178004 -2.61619 0.345729 -0.177996 91.3922 -28.0106 -104.692 43.3052 -22.2449 -7.57812 -14.1327 -16.7664 -25.6107 -10.4484 -0.0871939 -4.40524 -88.9203 -52.3581 80.7971 -20.0562 31.3419 -14.9004 5.59064 -6.81837 -12.0546 -1.08504 -0.0758515 -3.12452 6.64271 -1.01971 -0.765174 -6.64082 -0.898276 1.6534 
10.1323 101.028 20.565 -153.177 -81.8423 -153.911 -174.308 -2.81835 88.0912 -13.2702 5.97006 -0.176632 70.9743 5.78768 -1.5669 15.1202 -11.2183 9.06212 172.064 -4.10601 89.372 -14.0261 -2.09018 0.682733 69.8029 -5.5836 2.04596 22.8405 1.46418 4.07433 0.196327 7.64195 -90.1345 11.5903 0.327626 -0.301794 -0.0806008 0.314023 -0.315921 -22.616 0.403165 -0.18938 -2.60331 0.403178 -0.18937 91.5267 -27.9753 -104.428 43.66 -22.0854 -7.48433 -14.192 -16.9102 -25.5512 -10.3166 -0.0712024 -4.57437 -88.6568 -52.3234 81.1755 -20.4371 30.6789 -14.6215 6.35324 -4.81138 -12.2051 -0.712408 -0.0794519 -2.6889 6.59725 -0.980884 -0.773884 -6.78141 -0.868317 1.90142 
10.1591 101.042 20.6365 -153.161 -81.8404 -153.937 -174.347 -2.90314 88.0124 -13.2278 5.91046 -0.157479 70.9508 5.78449 -1.52737 14.966 -10.9554 8.48719 172.042 -4.16088 89.2993 -13.9821 -2.44643 0.654815 69.6731 -5.49924 1.95293 23.0608 1.52255 3.57298 0.214865 7.66903 -90.1119 11.5362 0.375156 -0.261348 -0.13474 0.363296 -0.277616 -22.6702 0.436356 -0.136517 -2.6576 0.43636 -0.136515 91.6888 -28.4388 -103.931 43.3571 -22.0511 -7.86588 -14.25 -16.8696 -25.5774 -10.0033 -0.044105 -4.90338 -88.6073 -52.0242 81.1928 -20.3677 30.6502 -15.178 6.2467 -5.03436 -11.7839 -0.915049 -0.082523 -2.56275 6.97346 -1.15201 -1.36839 -7.06678 -0.9322 2.30921 
10.1694 101.031 20.6965 -151.416 -81.8486 -152.048 -174.275 -2.71358 88.1504 -13.401 6.06565 -0.190063 71.0298 5.88347 -1.18403 14.6985 -11.0236 8.35131 172.14 -4.08837 89.4734 -13.9169 -2.67587 0.668502 69.5469 -5.53687 1.47553 23.0674 1.39713 3.98011 0.23178 7.64372 -90.1154 11.5869 0.407057 -0.272072 -0.0839867 0.394692 -0.289732 -22.6196 0.470008 -0.137158 -2.60693 0.470006 -0.137164 91.6996 -28.5629 -103.865 43.4375 -22.2065 -7.76773 -14.5372 -17.2955 -25.7788 -8.1376 -0.111304 -3.81477 -88.4985 -51.982 81.3447 -20.5513 30.3601 -15.1306 6.25027 -5.17496 -11.4517 -0.888654 -0.0839173 -2.70106 6.61405 -1.13542 -1.51437 -6.97729 -0.891724 2.3529 
10.2196 101.017 20.7176 -150.506 -81.6583 -151.138 -174.203 -2.99178 88.1449 -13.1739 5.34762 -0.240083 71.2566 5.91524 -1.75534 14.3445 -11.2043 8.3186 171.988 -4.14306 89.3134 -14.0133 -2.53737 0.733641 69.8099 -5.59587 2.13982 22.778 1.50512 4.02357 0.262119 7.64606 -90.1202 11.5824 0.465222 -0.287461 -0.0885424 0.452118 -0.307665 -22.6243 0.530103 -0.134349 -2.61164 0.530106 -0.134357 91.7105 -28.4658 -103.877 43.6575 -21.9207 -7.56797 -14.6223 -17.3095 -25.9484 -9.40913 -0.0967322 -4.19667 -88.6571 -52.062 81.1267 -21.0918 29.3132 -15.1445 6.76647 -3.94387 -10.9945 -0.812194 -0.0824726 -3.21728 6.09983 -1.30654 -1.61844 -6.59608 -1.0487 2.67958 
10.2283 101.026 20.7672 -149.44 -81.6933 -149.99 -174.276 -2.79434 88.1344 -13.4059 5.16083 -0.131009 71.1899 5.77562 -1.88949 14.9755 -11.0742 8.69064 172.219 -4.19855 89.4997 -13.7889 -2.38353 0.569787 69.7511 -5.5882 2.18263 22.7141 1.48295 4.18315 0.265967 7.63762 -90.1314 11.5993 0.467549 -0.310282 -0.0715834 0.453434 -0.330567 -22.6073 0.53918 -0.155415 -2.59467 0.539179 -0.155422 91.6939 -28.4332 -103.922 43.6955 -22.0291 -7.59817 -15.0243 -18.2524 -26.0738 -8.03548 -0.187378 -2.58414 -88.5593 -52.2887 81.3116 -20.7021 29.7161 -15.2418 6.40512 -4.81541 -10.9639 -1.01926 -0.0747141 -3.10254 6.02882 -1.17883 -1.40198 -6.58207 -0.957062 2.38433 
10.2777 101.024 20.8247 -149.125 -81.8217 -149.642 -174.308 -2.62585 88.1186 -13.5391 5.23916 -0.108383 71.3106 5.86152 -1.87545 14.8025 -11.2642 8.83884 172.139 -4.0226 89.4719 -13.7915 -2.53666 0.698506 69.4926 -5.47586 1.9606 23.256 1.28233 4.0999 0.259226 7.62601 -90.1532 11.6224 0.443913 -0.351321 -0.0485366 0.428021 -0.370533 -22.5841 0.528979 -0.201658 -2.5715 0.528971 -0.201677 91.8003 -28.1645 -103.798 43.8312 -22.0205 -7.67044 -15.0746 -18.2541 -26.0626 -7.53437 -0.152855 -3.016 -88.617 -52.665 81.2961 -20.0107 30.732 -15.3098 6.01767 -5.71903 -11.4738 -0.564076 -0.071018 -3.17989 5.91249 -1.14703 -1.12793 -6.6452 -0.978484 2.29645 
10.3079 100.987 20.93 -150.396 -82.035 -151.125 -174.404 -2.74384 87.899 -13.2409 5.39584 -0.140243 71.3203 6.05171 -1.62757 14.7882 -11.2931 8.87253 171.892 -3.99062 89.1626 -13.9328 -2.29628 0.802221 69.8945 -5.55389 2.40174 23.1229 1.47908 3.63065 0.21675 7.60587 -90.1146 11.6626 0.37741 -0.267845 -0.00830789 0.365252 -0.284195 -22.5438 0.440448 -0.142041 -2.53118 0.44046 -0.142032 91.694 -28.3693 -103.945 43.8223 -21.9728 -7.52861 -15.0012 -18.3806 -26.0364 -8.61884 -0.249374 -1.91818 -88.5416 -52.4057 81.3586 -20.8465 29.3962 -15.0361 6.75305 -3.96271 -11.1039 -1.11175 -0.0725438 -2.01776 5.60892 -1.09694 -1.3274 -6.51301 -0.894438 2.37278 
10.3403 101.002 20.9648 -150.485 -82.0349 -151.255 -174.449 -2.82372 87.8135 -13.1258 5.29164 -0.121918 71.2044 5.98751 -1.66383 14.9588 -10.8572 8.32002 171.959 -3.87116 89.1742 -14.0609 -2.24822 0.652729 69.8464 -5.50924 2.39742 23.1723 1.40721 3.79993 0.202735 7.61132 -90.1171 11.6517 0.348376 -0.269639 -0.0192373 0.336175 -0.284717 -22.5547 0.413304 -0.152467 -2.54202 0.413307 -0.152471 91.5878 -28.4002 -104.151 43.7197 -21.9349 -7.46467 -14.0654 -16.1173 -25.6816 -9.3963 -0.178856 -3.1105 -88.5463 -52.7343 81.4116 -20.2755 29.6383 -15.0918 6.52395 -4.6351 -11.1822 -0.999116 -0.0729898 -2.40798 5.67137 -0.967997 -0.882069 -6.69639 -0.837807 1.78855 
10.3491 101.015 21.0481 -151.318 -81.9487 -152.241 -174.495 -3.08001 87.6744 -13.0083 5.51491 -0.150587 71.048 5.9581 -1.53913 15.132 -11.1112 8.8981 171.759 -4.02922 88.9362 -14.1796 -2.76619 0.729688 69.9006 -5.57281 1.86717 23.1786 1.3667 3.92593 0.188157 7.62733 -90.0959 11.6195 0.329382 -0.225329 -0.0513854 0.319151 -0.239615 -22.5868 0.381878 -0.11591 -2.57417 0.381875 -0.115922 91.5236 -28.5302 -104.236 43.6255 -21.6683 -7.36333 -13.4935 -14.8563 -25.4483 -10.9588 -0.143864 -3.82016 -88.4096 -52.5532 81.578 -20.5976 29.5363 -15.0515 6.50029 -4.74334 -11.3311 -1.10266 -0.0724218 -2.43967 5.78997 -0.99192 -1.0776 -6.80811 -0.835244 2.13364 
10.3378 101.014 21.0689 -151.181 -81.8827 -151.997 -174.394 -3.10037 87.834 -13.0783 5.61396 -0.1876 71.0769 5.97816 -1.49384 15.3585 -11.0034 8.93271 171.827 -4.39863 89.0136 -13.837 -2.93415 0.751394 69.8652 -5.59044 1.79507 23.1423 1.47069 3.63167 0.175091 7.62829 -90.1272 11.6176 0.288711 -0.283462 -0.0533063 0.275969 -0.295902 -22.5886 0.360554 -0.183581 -2.57594 0.360557 -0.18359 91.6009 -28.1862 -104.2 43.8664 -21.676 -7.38872 -13.8779 -15.6486 -25.5557 -10.2598 -0.131175 -3.86901 -88.2549 -52.8588 81.8572 -20.596 29.3563 -14.8218 6.69578 -4.40856 -11.6065 -1.06612 -0.0693968 -2.54167 5.86198 -0.8239 -0.316072 -6.90517 -0.796798 1.50698 
